<svg width="137" height="89" viewBox="0 0 137 89" fill="none" xmlns="http://www.w3.org/2000/svg">
<path d="M52.7076 64.2153H20.6846C18.4926 64.2153 16.7146 65.9923 16.7146 68.1853C16.7146 70.3773 18.4916 72.1553 20.6846 72.1553H52.7086C54.9006 72.1553 56.6786 70.3783 56.6786 68.1853C56.6776 65.9933 54.9006 64.2153 52.7076 64.2153Z" fill="#177BEA"/>
<path d="M40.7987 52.3052C40.7987 50.1132 39.0207 48.3352 36.8287 48.3352H4.80472C2.61172 48.3352 0.834717 50.1122 0.834717 52.3052C0.834717 54.4982 2.61172 56.2752 4.80472 56.2752H36.8287C39.0207 56.2752 40.7987 54.4982 40.7987 52.3052Z" fill="#177BEA"/>
<path d="M52.7076 32.4563H20.6846C18.4926 32.4563 16.7146 34.2333 16.7146 36.4263C16.7146 38.6193 18.4916 40.3963 20.6846 40.3963H52.7086C54.9006 40.3963 56.6786 38.6193 56.6786 36.4263C56.6786 34.2333 54.9006 32.4563 52.7076 32.4563Z" fill="#177BEA"/>
<path d="M135.602 51.5273C133.967 43.3513 129.662 35.6213 123.347 29.4153L125.497 26.7283C126.867 25.0163 126.589 22.5183 124.877 21.1483C123.165 19.7783 120.667 20.0563 119.297 21.7683L117.238 24.3423C110.993 19.9853 103.96 17.3523 96.8827 16.7243L95.2647 8.63628H98.3617C100.554 8.63628 102.332 6.85929 102.332 4.66629C102.332 2.47329 100.555 0.696289 98.3617 0.696289H82.4817C80.2897 0.696289 78.5117 2.47329 78.5117 4.66629C78.5117 6.85829 80.2887 8.63628 82.4817 8.63628H87.1667L88.8197 16.9003C82.5587 17.7623 77.0057 20.3343 72.6577 24.3943L68.8207 21.1973C67.1367 19.7943 64.6337 20.0213 63.2297 21.7053C61.8257 23.3893 62.0537 25.8933 63.7377 27.2963L67.6757 30.5773C63.8507 37.0033 62.6487 44.8423 64.2967 53.0823C66.1707 62.4513 71.5487 71.2333 79.4417 77.8103C87.3517 84.4023 96.8907 88.0323 106.301 88.0323C115.878 88.0323 124.22 84.2913 129.789 77.4983C135.496 70.5403 137.56 61.3163 135.602 51.5273ZM112.033 43.5573L103.05 54.7863C102.266 55.7663 101.112 56.2763 99.9467 56.2763C99.0767 56.2763 98.2017 55.9913 97.4697 55.4063C95.7577 54.0363 95.4797 51.5383 96.8497 49.8263L105.833 38.5973C107.203 36.8853 109.701 36.6073 111.413 37.9773C113.125 39.3473 113.403 41.8453 112.033 43.5573Z" fill="#177BEA"/>
</svg>
